/* XPM */
static const char *icon48[] = {
/* columns rows colors chars-per-pixel */
"48 48 136 2 ",
"   c #EF6C43",
".  c #F16D44",
"X  c #F37047",
"o  c #F4724B",
"O  c #F77B55",
"+  c #F87A54",
"@  c #F77C58",
"#  c #F87C58",
"$  c #F58564",
"%  c #E3927C",
"&  c #0466BF",
"*  c #126BBC",
"=  c #066BC6",
"-  c #0969C2",
";  c #036CCD",
":  c #077AC6",
">  c #0276CE",
",  c #0B70C9",
"<  c #037BCB",
"1  c #187ACE",
"2  c #026ED2",
"3  c #0472D3",
"4  c #047BD3",
"5  c #0A78D7",
"6  c #027DDE",
"7  c #0A7FDB",
"8  c #017FE0",
"9  c #5C8CBD",
"0  c #6693B7",
"q  c #6D97B7",
"w  c #6294BA",
"e  c #6F9DBD",
"r  c #759AB7",
"t  c #0282D6",
"y  c #0383DB",
"u  c #0C83DC",
"i  c #0789DB",
"p  c #0C89DF",
"a  c #1089D6",
"s  c #2784CE",
"d  c #2D86CD",
"f  c #2D9CDC",
"g  c #3C9FD9",
"h  c #0284E3",
"j  c #0B87E1",
"k  c #0289E6",
"l  c #0B8DE4",
"z  c #018DEA",
"x  c #098DE8",
"c  c #0D91E6",
"v  c #0390EB",
"b  c #0B93E9",
"n  c #1494E6",
"m  c #1894E6",
"M  c #1D98E4",
"N  c #1496EA",
"B  c #1997EA",
"V  c #1798EC",
"C  c #1A99ED",
"Z  c #2198E4",
"A  c #229CEB",
"S  c #2EA1E6",
"D  c #2BA1EA",
"F  c #34A4E6",
"G  c #3BA3E6",
"H  c #34A4E9",
"J  c #3BA6E9",
"K  c #3BA9EB",
"L  c #579DCA",
"P  c #6091C1",
"I  c #699FC7",
"U  c #74B5DC",
"Y  c #78B8DF",
"T  c #49A4E4",
"R  c #44AAE5",
"E  c #43ACEA",
"W  c #54ADE4",
"Q  c #4DB2EC",
"!  c #4CB1EA",
"~  c #59B6E6",
"^  c #53B4EA",
"/  c #57B6EA",
"(  c #58B6EB",
")  c #5DB3EC",
"_  c #5FBAEC",
"`  c #5EB9ED",
"'  c #62B8E6",
"]  c #6FBBE7",
"[  c #63BBEA",
"{  c #67BFEA",
"}  c #61BDEC",
"|  c #68B9EA",
" . c #68BEE8",
".. c #79BAE2",
"X. c #77BCEC",
"o. c #78C0EB",
"O. c #7EC3EB",
"+. c #9E8995",
"@. c #9A8F9F",
"#. c #99909E",
"$. c #AB8F98",
"%. c #A5939F",
"&. c #A393A0",
"*. c #DD9A87",
"=. c #D49B8D",
"-. c #D69E90",
";. c #E09A85",
":. c #8DB4D3",
">. c #8FB8D4",
",. c #80BFE3",
"<. c #96CDEF",
"1. c #9ACDEC",
"2. c #99CEF0",
"3. c #9CD1F0",
"4. c #9CD2F4",
"5. c #A0CEE9",
"6. c #ABD5EC",
"7. c #A0D3F0",
"8. c #A7D8F8",
"9. c #B8DFF3",
"0. c #BADFF3",
"q. c #B4E0F9",
"w. c #BCE2FC",
"e. c #C2E1F1",
"r. c #C5E3F2",
"t. c #C3E6FB",
"y. c #CBEAFB",
"u. c #D9F1FE",
"i. c #E6F3F9",
"p. c #F6FBFB",
"a. c #FAFCFC",
"s. c #FDFDFD",
"d. c #FFFEFE",
"f. c #FFFFFE",
"g. c None",
"h. c black",
/* pixels */
"g.g.g.g.g.g.g.g.g.g.g.g.g.g.g.g.g.g.g.g.g.g.g.g.g.g.g.g.g.g.g.g.g.g.g.g.g.g.g.g.g.g.g.g.g.g.g.g.",
"g.g.g.g.g.g.g.g.g.g.g.g.g.g.g.g.g.g.g.g.g.g.g.g.g.g.g.g.g.g.g.g.g.g.g.g.g.g.g.g.g.g.g.g.g.g.g.g.",
"g.g.g.g.g.g.g.g.g.g.g.g.g.g.g.g.g.g.g.g.g.g.g.g.g.g.g.g.g.g.g.g.( E H J  .g.g.g.g.g.g.g.g.g.g.g.",
"g.g.g.g.g.g.g.g.g.g.g.g.g.g.g.g.g.g.g.g.g.g.g.g.g.g.g.} Q K D A C C C N F g.g.g.g.g.g.g.g.g.g.g.",
"g.g.g.g.g.g.g.g.g.g.g.g.g.g.g.g.g.g.g.g.g.g.g._ ! K D C C C C C V V B N A g.g.g.g.g.g.g.g.g.g.g.",
"g.g.g.g.g.g.g.g.g.g.g.g.g.g.g.g.g.g.g./ E J D C C C C C C C V V N N N N B ~ g.g.g.g.g.g.g.g.g.g.",
"g.g.g.g.g.g.g.g.g.g.g.g.g.g.{ ^ E H A C C V C C C V V V N N N N N N B N N R g.g.g.g.g.g.g.g.g.g.",
"g.g.g.g.g.g.g.g.g.g.[ ! J D A C C C C C C V V V N N N N N N N N J 7.9.o.m S g.g.g.g.g.g.g.g.g.g.",
"g.g.g.g.g.g.g.g.{ D C C V C C C V V V V V N N N N N N N N N b M 9.d.d.p.| M g.g.g.g.g.g.g.g.g.g.",
"g.g.g.g.g.g.g.g.E V V C C V N N N N N N N N N N N N N N N b b H i.d.d.d.4.n ' g.g.g.g.g.g.g.g.g.",
"g.g.g.g.g.g.g.g.E N n n n n n n n n n n c c c c c c c c l l c Z r.d.d.a.] l R g.g.g.g.g.g.g.g.g.",
"g.g.g.g.g.g.g.g.W l i i i y y y y y y t y y y y y y y y y y y y g 6.e.,.a y f g.g.g.g.g.g.g.g.g.",
"g.g.g.g.g.g.g., I e w w w w w w w w w w w w w w w w w w w w w w w q r 0 w w L d ; g.g.g.g.g.g.g.",
"g.g.g.g.g.; 2 9 % $ $ $ $ $ $ $ $ $ $ $ $ $ $ $ $ $ $ $ $ $ $ $ $ $ $ $ $ $ % P ; 2 g.g.g.g.g.g.",
"g.g.g.g.g.2 ; %.@ + + + + + + + + + + # @ @ @ @ @ @ + + + + + + + + + + + + + @.; 2 2 g.g.g.g.g.",
"g.g.g.g.3 2 ; $.o . . . . . . . X X X o X o o o o o o X X X . . .         . o +.= 2 2 g.g.g.g.g.",
"g.g.g.g.2 2 = %.;.-.=.=.=.=.=.=.=.=.=.-.-.-.-.-.-.-.=.=.=.=.=.=.=.=.=.=.=.=.*.#.& ; 2 3 g.g.g.g.",
"g.g.g.g.2 ; - :.5.<.<.<.2.2.4.2.4.4.4.4.4.4.4.4.4.4.4.4.4.4.4.4.4.2.2.2.<.<.1.>.* ; 2 3 g.g.g.g.",
"g.g.g.g.5 5 1 U Y U U U U U Y Y Y Y Y ....................Y Y Y Y Y U U U U U Y s 3 3 2 g.g.g.g.",
"g.g.g.g.l x l m m n n m m m n n m m m m m N m N N N N m m N N B N N N N N N m B b b x 4 g.g.g.g.",
"g.g.g.g.k k l l l l l l l l l l c c c c c c c b b b b b b b b b b b b b b b b b c n v v g.g.g.g.",
"g.g.g.g.h l j h k k k k k k k z z z z z z z z z z z z z z z z z z z z z z v v v z c v v g.g.g.g.",
"g.g.g.g.h l h k k k k k k k k k z z z z z z z z z z z z z z z z z z z z z v v v z b b v g.g.g.g.",
"g.g.g.g.h l h k k k k k k k k k k z z z z z z z z z z z z z z z z z z z z v z z z b b v g.g.g.g.",
"g.g.g.g.h l k k h h h k k k k k k k z z z z z z z z z z z z z z z z z z v v z z z b b v g.g.g.g.",
"g.g.g.g.h j h h h h h h k k k k k k k k z z z z z z z z z z z z z z z z z v v v z v b v g.g.g.g.",
"g.g.g.g.h l h h h h h h k k k k k k k k k z z z z z z z z z z z z z z z z z k z z c c x g.g.g.g.",
"g.g.g.g.y p h h h h h h k k k k k k k k k k z z z z z z z z z z z k k k k k k k k k k k g.g.g.g.",
"g.g.g.g.y p h h h h h h h k k k k k k k k k z k z z z z z z z z k x J _ H z z z z z z k l g.g.g.",
"g.g.g.g.y p h h h h h h h k k h h k h k k k k k k k z z z z z z k R y.u.q.H k k k k k h h g.g.g.",
"g.g.g.g.y p 8 8 h h h h h h h h h h h h h k k k k k k z z z z k h O.u.y.w.) h h h h h h y g.g.g.",
"g.g.g.g.6 u 8 8 6 h h h h h h h h h h h h k k k k k k k k z z k y W t.w.8.G y h h h 8 6 6 g.g.g.",
"g.g.g.g.y u 6 6 y y h h h h h h h h h h h k k k k k k k k k z k y u W X.T u 8 8 8 8 6 6 6 g.g.g.",
"g.g.g.g.y p 6 6 8 h h h h h h h h h h h h h k k k k k k k k k k h 4 4 < > > > > > > > 4 g.g.g.g.",
"g.g.g.g.6 u 6 6 8 8 8 h 6 8 h h h h h h h h k k k k k k k k k k k h t < < < < < < : : : g.g.g.g.",
"g.g.g.g.6 u 6 6 6 8 8 8 8 6 8 8 h h h h h h h h k k k k k k k k k k k k k k k k k l i y g.g.g.g.",
"g.g.g.g.6 u 6 6 6 6 6 8 8 6 8 8 8 h h h h h h h k k k k k k k k k k z z z z z z z l l k g.g.g.g.",
"g.g.g.g.6 u 6 6 6 6 6 6 6 6 6 h 6 y h h h h h h h h h k k k k k k k z z z z z z z l l k g.g.g.g.",
"g.g.g.g.6 u 8 6 6 6 6 6 6 8 8 8 8 8 h h h h h h h h h k k k k k k k k k k z z z z l l k g.g.g.g.",
"g.g.g.g.6 u 6 6 6 6 6 6 6 6 6 6 y h 8 h h y h h h h h h h k k k k k k k k z z z z l l k g.g.g.g.",
"g.g.g.g.6 u 6 6 6 6 6 6 6 6 6 6 6 8 6 h h h h h h h h h h k k k k k k k k k z z z l l l g.g.g.g.",
"g.g.g.g.6 u 6 6 6 6 6 6 6 6 6 6 6 8 8 8 h h h h h h h h k k k k k k k k k k k z z l l k g.g.g.g.",
"g.g.g.g.4 u 6 6 6 6 6 6 6 6 6 6 6 8 8 6 6 6 h h 8 h h h h h k h k k k k k k z k k l l g.g.g.g.g.",
"g.g.g.g.4 7 u 6 6 6 6 6 6 6 6 6 6 6 6 6 6 6 8 h 6 6 8 h h h h h h h h k k k k k x c k g.g.g.g.g.",
"g.g.g.g.g.4 6 u u u u u 7 u u u u u u u p p p p p u u p j p p l j u l l l l l l l k l g.g.g.g.g.",
"g.g.g.g.g.g.4 6 6 6 6 6 6 6 6 6 6 6 6 6 6 6 8 h y y h h h h h h h h h h h k k k k g.g.g.g.g.g.g.",
"g.g.g.g.g.g.g.g.g.g.g.g.g.g.g.g.g.g.g.g.g.g.g.g.g.g.g.g.g.g.g.g.g.g.g.g.g.g.g.g.g.g.g.g.g.g.g.g.",
"g.g.g.g.g.g.g.g.g.g.g.g.g.g.g.g.g.g.g.g.g.g.g.g.g.g.g.g.g.g.g.g.g.g.g.g.g.g.g.g.g.g.g.g.g.g.g.g."
};
